# xmcd
#
# Track frame offsets: 
#        150
#        16474
#        37984
#        49951
#        62780
#        86031
#        101245
#        116843
#        137173
#        151362
#        166173
#        180606
#        217026
#
# Disc length: 4415 seconds
#
# Revision: 4
# Processed by: cddbd v1.5.2PL0 Copyright (c) Steve Scherf et al.
# Submitted via: ExactAudioCopy v0.95b4
#
DISCID=b9113d0d
DTITLE=Bradley N. Litwin - I'll Give You The Bus Money, Honey!
DYEAR=1998
DGENRE=Blues
TTITLE0=Crossroads
TTITLE1=Careless Love
TTITLE2=I'll Give You The Bus Money, Honey!
TTITLE3=Without Your Love
TTITLE4='Taint Nobody's Business
TTITLE5=Police Dog Blues
TTITLE6=Bleeding Hearted Blues
TTITLE7=My Little Porcupine
TTITLE8=Old Rockin' Chair
TTITLE9=Paper Doll
TTITLE10=Key to the Highway
TTITLE11=Don't Look Back
TTITLE12=Data Track
EXTD=
EXTT0=
EXTT1=
EXTT2=
EXTT3=
EXTT4=
EXTT5=
EXTT6=
EXTT7=
EXTT8=
EXTT9=
EXTT10=
EXTT11=
EXTT12=
PLAYORDER=
